<svg width="24" height="24" viewBox="0 0 24 24" fill="none" xmlns="http://www.w3.org/2000/svg">
<g id="ep:right">
<path id="Vector" d="M6.3105 11.2509H20.25C20.4489 11.2509 20.6397 11.33 20.7803 11.4706C20.921 11.6113 21 11.802 21 12.0009C21 12.1999 20.921 12.3906 20.7803 12.5313C20.6397 12.6719 20.4489 12.7509 20.25 12.7509H6.3105L11.781 18.2199C11.9218 18.3608 12.0009 18.5518 12.0009 18.7509C12.0009 18.9501 11.9218 19.1411 11.781 19.2819C11.6402 19.4228 11.4492 19.5019 11.25 19.5019C11.0508 19.5019 10.8598 19.4228 10.719 19.2819L3.969 12.5319C3.89915 12.4623 3.84374 12.3795 3.80593 12.2884C3.76812 12.1973 3.74866 12.0996 3.74866 12.0009C3.74866 11.9023 3.76812 11.8046 3.80593 11.7135C3.84374 11.6224 3.89915 11.5396 3.969 11.4699L10.719 4.71995C10.8598 4.57912 11.0508 4.5 11.25 4.5C11.4492 4.5 11.6402 4.57912 11.781 4.71995C11.9218 4.86078 12.0009 5.05178 12.0009 5.25095C12.0009 5.45011 11.9218 5.64112 11.781 5.78195L6.3105 11.2509Z" fill="black"/>
</g>
</svg>
