<svg width="20" height="4" viewBox="0 0 20 4" fill="none" xmlns="http://www.w3.org/2000/svg">
<path d="M4.58333 2C4.58333 2.53043 4.35506 3.03914 3.94873 3.41421C3.5424 3.78929 2.9913 4 2.41667 4C1.84203 4 1.29093 3.78929 0.884602 3.41421C0.478273 3.03914 0.25 2.53043 0.25 2C0.25 1.46957 0.478273 0.96086 0.884602 0.585787C1.29093 0.210714 1.84203 0 2.41667 0C2.9913 0 3.5424 0.210714 3.94873 0.585787C4.35506 0.96086 4.58333 1.46957 4.58333 2ZM12.1667 2C12.1667 2.53043 11.9384 3.03914 11.5321 3.41421C11.1257 3.78929 10.5746 4 10 4C9.42536 4 8.87426 3.78929 8.46794 3.41421C8.06161 3.03914 7.83333 2.53043 7.83333 2C7.83333 1.46957 8.06161 0.96086 8.46794 0.585787C8.87426 0.210714 9.42536 0 10 0C10.5746 0 11.1257 0.210714 11.5321 0.585787C11.9384 0.96086 12.1667 1.46957 12.1667 2ZM19.75 2C19.75 2.53043 19.5217 3.03914 19.1154 3.41421C18.7091 3.78929 18.158 4 17.5833 4C17.0087 4 16.4576 3.78929 16.0513 3.41421C15.6449 3.03914 15.4167 2.53043 15.4167 2C15.4167 1.46957 15.6449 0.96086 16.0513 0.585787C16.4576 0.210714 17.0087 0 17.5833 0C18.158 0 18.7091 0.210714 19.1154 0.585787C19.5217 0.96086 19.75 1.46957 19.75 2Z" fill="black"/>
</svg>
