<svg width="19" height="20" viewBox="0 0 19 20" fill="none" xmlns="http://www.w3.org/2000/svg">
<path d="M15.75 7.14293H17.5357C17.7725 7.14293 17.9996 7.21818 18.167 7.35214C18.3345 7.48609 18.4286 7.66777 18.4286 7.85721V18.5715C18.4286 18.7609 18.3345 18.9426 18.167 19.0766C17.9996 19.2105 17.7725 19.2858 17.5357 19.2858H1.46427C1.22747 19.2858 1.00037 19.2105 0.832923 19.0766C0.66548 18.9426 0.571411 18.7609 0.571411 18.5715V7.85721C0.571411 7.66777 0.66548 7.48609 0.832923 7.35214C1.00037 7.21818 1.22747 7.14293 1.46427 7.14293H3.24998M9.49998 10.7144V0.714355M9.49998 0.714355L5.92855 3.5715M9.49998 0.714355L13.0714 3.5715" stroke="black" stroke-linecap="round" stroke-linejoin="round"/>
</svg>
