<svg width="30" height="25" viewBox="0 0 30 25" fill="none" xmlns="http://www.w3.org/2000/svg">
<g id="fa-solid:user-friends">
<path id="Vector" d="M20.2 12.44C17.6853 12.44 15.65 10.5523 15.65 8.22C15.65 5.8877 17.6853 4 20.2 4C22.7147 4 24.75 5.8877 24.75 8.22C24.75 10.5523 22.7147 12.44 20.2 12.44ZM17.08 13.6457H17.4172C18.2622 14.0225 19.2006 14.2486 20.2 14.2486C21.1994 14.2486 22.1337 14.0225 22.9828 13.6457H23.32C25.9038 13.6457 28 15.5899 28 17.9863V19.0714C28 20.0699 27.1266 20.88 26.05 20.88H14.35C13.2734 20.88 12.4 20.0699 12.4 19.0714V17.9863C12.4 15.5899 14.4963 13.6457 17.08 13.6457ZM8.5 12.44C6.34687 12.44 4.6 10.8198 4.6 8.82286C4.6 6.82589 6.34687 5.20571 8.5 5.20571C10.6531 5.20571 12.4 6.82589 12.4 8.82286C12.4 10.8198 10.6531 12.44 8.5 12.44ZM6.55 13.6457H6.70437C7.26906 13.8266 7.86625 13.9471 8.5 13.9471C9.13375 13.9471 9.73094 13.8266 10.2956 13.6457H10.45C11.2787 13.6457 12.0425 13.868 12.7128 14.226C11.7216 15.2169 11.1 16.5319 11.1 17.9863V19.4331C11.1 19.516 11.1203 19.5952 11.1244 19.6743H3.95C2.87344 19.6743 2 18.8642 2 17.8657C2 15.5334 4.03531 13.6457 6.55 13.6457Z" fill="black"/>
</g>
</svg>
