<svg width="22" height="22" viewBox="0 0 22 22" fill="none" xmlns="http://www.w3.org/2000/svg">
<path d="M21 19.496V8.8373C21 8.64263 20.9548 8.45063 20.868 8.27651C20.7812 8.10239 20.6552 7.95093 20.5 7.83413L11.75 1.25079C11.5336 1.088 11.2705 1 11 1C10.7295 1 10.4664 1.088 10.25 1.25079L1.5 7.83413C1.34476 7.95093 1.21875 8.10239 1.13197 8.27651C1.04518 8.45063 1 8.64263 1 8.8373V19.496C1 19.8286 1.1317 20.1476 1.36612 20.3827C1.60054 20.6179 1.91848 20.75 2.25 20.75H7.25C7.58152 20.75 7.89946 20.6179 8.13388 20.3827C8.3683 20.1476 8.5 19.8286 8.5 19.496V15.7341C8.5 15.4016 8.6317 15.0826 8.86612 14.8474C9.10054 14.6123 9.41848 14.4802 9.75 14.4802H12.25C12.5815 14.4802 12.8995 14.6123 13.1339 14.8474C13.3683 15.0826 13.5 15.4016 13.5 15.7341V19.496C13.5 19.8286 13.6317 20.1476 13.8661 20.3827C14.1005 20.6179 14.4185 20.75 14.75 20.75H19.75C20.0815 20.75 20.3995 20.6179 20.6339 20.3827C20.8683 20.1476 21 19.8286 21 19.496Z" stroke="black" stroke-width="2" stroke-linecap="round" stroke-linejoin="round"/>
</svg>
