<svg width="30" height="30" viewBox="0 0 30 30" fill="none" xmlns="http://www.w3.org/2000/svg">
<g id="ic:round-add">
<path id="Vector" d="M19.375 11.875L16.25 15L19.375 18.125C19.7187 18.4687 19.7187 19.0313 19.375 19.375C19.0312 19.7188 18.4687 19.7188 18.125 19.375L15 16.25L11.875 19.375C11.5312 19.7188 10.9687 19.7188 10.625 19.375C10.2812 19.0313 10.2812 18.4688 10.625 18.125L13.75 15L10.625 11.875C10.2812 11.5312 10.2812 10.9687 10.625 10.625C10.9687 10.2812 11.5312 10.2812 11.875 10.625L15 13.75L18.125 10.625C18.4687 10.2812 19.0312 10.2812 19.375 10.625C19.7187 10.9687 19.7187 11.5313 19.375 11.875Z" fill="black"/>
</g>
</svg>
