<svg width="20" height="20" viewBox="0 0 20 20" fill="none" xmlns="http://www.w3.org/2000/svg">
<path d="M7.85711 0.357178C9.2857 0.357147 10.6846 0.765129 11.8892 1.53312C13.0938 2.30112 14.054 3.39718 14.6568 4.69234C15.2596 5.98751 15.48 7.42791 15.2921 8.84408C15.1041 10.2603 14.5155 11.5933 13.5957 12.6863L19.4543 18.5457C19.5682 18.6606 19.6347 18.8142 19.6404 18.9759C19.6461 19.1376 19.5906 19.2955 19.485 19.4181C19.3794 19.5407 19.2314 19.619 19.0707 19.6373C18.9099 19.6556 18.7481 19.6126 18.6177 19.5169L18.5457 19.4543L12.6863 13.5957C11.7634 14.3723 10.6668 14.9149 9.4896 15.1774C8.31237 15.4399 7.08919 15.4146 5.92382 15.1037C4.75845 14.7927 3.68525 14.2053 2.79527 13.3912C1.90529 12.5772 1.22477 11.5605 0.811438 10.4274C0.398105 9.29425 0.26415 8.07817 0.420936 6.88226C0.577722 5.68635 1.02062 4.54589 1.71207 3.55762C2.40352 2.56935 3.32312 1.76243 4.39287 1.20528C5.46263 0.648134 6.65097 0.357208 7.85711 0.357178ZM7.85711 1.64289C6.20898 1.64289 4.62835 2.29761 3.46295 3.46301C2.29754 4.62842 1.64283 6.20905 1.64283 7.85718C1.64283 9.50531 2.29754 11.0859 3.46295 12.2513C4.62835 13.4167 6.20898 14.0715 7.85711 14.0715C9.50524 14.0715 11.0859 13.4167 12.2513 12.2513C13.4167 11.0859 14.0714 9.50531 14.0714 7.85718C14.0714 6.20905 13.4167 4.62842 12.2513 3.46301C11.0859 2.29761 9.50524 1.64289 7.85711 1.64289Z" fill="black" fill-opacity="0.5"/>
</svg>
