<svg width="26" height="17" viewBox="0 0 26 17" fill="none" xmlns="http://www.w3.org/2000/svg">
<path d="M18.2 8.44C15.6853 8.44 13.65 6.5523 13.65 4.22C13.65 1.8877 15.6853 0 18.2 0C20.7147 0 22.75 1.8877 22.75 4.22C22.75 6.5523 20.7147 8.44 18.2 8.44ZM15.08 9.64571H15.4172C16.2622 10.0225 17.2006 10.2486 18.2 10.2486C19.1994 10.2486 20.1337 10.0225 20.9828 9.64571H21.32C23.9038 9.64571 26 11.5899 26 13.9863V15.0714C26 16.0699 25.1266 16.88 24.05 16.88H12.35C11.2734 16.88 10.4 16.0699 10.4 15.0714V13.9863C10.4 11.5899 12.4963 9.64571 15.08 9.64571ZM6.5 8.44C4.34687 8.44 2.6 6.81982 2.6 4.82286C2.6 2.82589 4.34687 1.20571 6.5 1.20571C8.65313 1.20571 10.4 2.82589 10.4 4.82286C10.4 6.81982 8.65313 8.44 6.5 8.44ZM4.55 9.64571H4.70437C5.26906 9.82657 5.86625 9.94714 6.5 9.94714C7.13375 9.94714 7.73094 9.82657 8.29563 9.64571H8.45C9.27875 9.64571 10.0425 9.86802 10.7128 10.226C9.72156 11.2169 9.1 12.5319 9.1 13.9863V15.4331C9.1 15.516 9.12031 15.5952 9.12438 15.6743H1.95C0.873438 15.6743 0 14.8642 0 13.8657C0 11.5334 2.03531 9.64571 4.55 9.64571Z" fill="black"/>
</svg>
